<svg width="22" height="27" viewBox="0 0 22 27" fill="none" xmlns="http://www.w3.org/2000/svg">
<path d="M17.5593 13.8959C17.5721 12.8943 17.8352 11.9123 18.3241 11.0411C18.813 10.17 19.5119 9.43808 20.3557 8.91347C19.8197 8.13928 19.1125 7.50215 18.2903 7.05269C17.4682 6.60322 16.5537 6.35381 15.6196 6.32425C13.6269 6.11274 11.6951 7.53005 10.6797 7.53005C9.64459 7.53005 8.08117 6.34525 6.39763 6.38028C5.30867 6.41586 4.24739 6.73608 3.31719 7.30975C2.387 7.88342 1.61962 8.69098 1.08982 9.65373C-1.20518 13.6718 0.50668 19.5771 2.70509 22.825C3.805 24.4154 5.09048 26.192 6.77251 26.129C8.41847 26.0599 9.0332 25.0676 11.02 25.0676C12.9884 25.0676 13.5651 26.129 15.2813 26.0889C17.0475 26.0599 18.1603 24.4914 19.2216 22.886C20.0119 21.7527 20.62 20.5003 21.0234 19.1749C19.9973 18.7361 19.1217 18.0015 18.5057 17.0627C17.8896 16.1239 17.5605 15.0226 17.5593 13.8959Z" fill="white"/>
<path d="M14.3184 4.18874C15.2814 3.01969 15.7558 1.51708 15.6409 0C14.1697 0.156265 12.8106 0.867335 11.8346 1.99153C11.3574 2.54073 10.9919 3.17965 10.7591 3.87178C10.5262 4.5639 10.4305 5.29565 10.4774 6.0252C11.2133 6.03286 11.9413 5.87157 12.6067 5.55346C13.272 5.23536 13.8572 4.76874 14.3184 4.18874Z" fill="white"/>
</svg>
