<svg width="48" height="48" viewBox="0 0 48 48" fill="none" xmlns="http://www.w3.org/2000/svg">
<rect width="48" height="48" rx="10" fill="#FFDE40"/>
<path d="M23.9996 9.59961C21.1516 9.59961 18.3675 10.4442 15.9994 12.0264C13.6313 13.6087 11.7857 15.8577 10.6958 18.489C9.60585 21.1202 9.32068 24.0156 9.87631 26.8089C10.4319 29.6022 11.8034 32.168 13.8173 34.182C15.8312 36.1958 18.397 37.5673 21.1903 38.123C23.9836 38.6785 26.879 38.3934 29.5102 37.3035C32.1415 36.2136 34.3905 34.3679 35.9728 31.9998C37.5551 29.6317 38.3996 26.8476 38.3996 23.9996C38.3996 22.1086 38.0271 20.2361 37.3035 18.489C36.5799 16.7419 35.5192 15.1544 34.182 13.8173C32.8448 12.4801 31.2574 11.4194 29.5102 10.6957C27.7632 9.97208 25.8906 9.59961 23.9996 9.59961ZM32.15 28.9532L23.2076 24.4892V15.3596H24.7916V23.51L32.8556 27.5276L32.15 28.9532Z" fill="#1E1E1E"/>
</svg>
