<svg width="48" height="48" viewBox="0 0 48 48" fill="none" xmlns="http://www.w3.org/2000/svg">
<rect width="48" height="48" rx="10" fill="#FFDE40"/>
<path d="M24 12C21.6266 12 19.3065 12.7038 17.3332 14.0224C15.3598 15.3409 13.8217 17.2151 12.9135 19.4078C12.0052 21.6005 11.7676 24.0133 12.2306 26.3411C12.6936 28.6688 13.8365 30.807 15.5147 32.4853C17.193 34.1635 19.3311 35.3064 21.6589 35.7695C23.9867 36.2324 26.3995 35.9948 28.5922 35.0865C30.7849 34.1783 32.6591 32.6402 33.9776 30.6668C35.2962 28.6934 36 26.3733 36 24C36 22.4241 35.6896 20.8637 35.0866 19.4078C34.4836 17.9519 33.5996 16.629 32.4853 15.5147C31.371 14.4004 30.0481 13.5165 28.5922 12.9134C27.1363 12.3104 25.5758 12 24 12ZM18.78 20.664C18.78 20.3626 18.8694 20.0679 19.0368 19.8173C19.2043 19.5667 19.4423 19.3714 19.7208 19.256C19.9993 19.1407 20.3057 19.1105 20.6013 19.1693C20.8969 19.2281 21.1685 19.3732 21.3816 19.5864C21.5948 19.7995 21.7399 20.071 21.7987 20.3667C21.8575 20.6623 21.8274 20.9687 21.712 21.2472C21.5967 21.5257 21.4013 21.7637 21.1507 21.9312C20.9001 22.0986 20.6054 22.188 20.304 22.188C19.8998 22.188 19.5122 22.0274 19.2264 21.7416C18.9406 21.4558 18.78 21.0682 18.78 20.664ZM22.308 28.8H19.44L25.692 19.2H28.56L22.308 28.8ZM27.696 28.8C27.3941 28.8 27.099 28.7102 26.8481 28.5423C26.5972 28.3743 26.4019 28.1355 26.287 27.8564C26.1719 27.5772 26.1425 27.2702 26.2022 26.9742C26.262 26.6783 26.4084 26.4067 26.6227 26.1941C26.837 25.9814 27.1097 25.8373 27.4061 25.7798C27.7025 25.7223 28.0093 25.7543 28.2876 25.8715C28.5659 25.9886 28.803 26.1859 28.969 26.438C29.135 26.6903 29.2224 26.9861 29.22 27.288C29.22 27.4875 29.1805 27.6852 29.1037 27.8694C29.027 28.0536 28.9146 28.2209 28.7729 28.3614C28.6313 28.5019 28.4632 28.613 28.2784 28.6884C28.0934 28.7636 27.8956 28.8015 27.696 28.8Z" fill="#1E1E1E"/>
</svg>
