<svg width="48" height="48" viewBox="0 0 48 48" fill="none" xmlns="http://www.w3.org/2000/svg">
<rect width="48" height="48" rx="10" fill="#FFDE40"/>
<path d="M36.0549 20.5261H33.9277C33.9277 17.9465 32.8818 15.4726 31.02 13.6486C29.1583 11.8245 26.6332 10.7998 24.0004 10.7998C21.3675 10.7998 18.8425 11.8245 16.9807 13.6486C15.119 15.4726 14.0731 17.9465 14.0731 20.5261H11.9458C11.0055 20.5261 10.1037 20.8921 9.43883 21.5435C8.77393 22.195 8.40039 23.0786 8.40039 23.9998V28.1682C8.40039 29.0894 8.77393 29.973 9.43883 30.6245C10.1037 31.2759 11.0055 31.6419 11.9458 31.6419H16.9095V20.5261C16.9095 18.6836 17.6566 16.9165 18.9864 15.6136C20.3162 14.3107 22.1197 13.5788 24.0004 13.5788C25.881 13.5788 27.6847 14.3107 29.0144 15.6136C30.3442 16.9165 31.0913 18.6836 31.0913 20.5261V31.6419C31.0913 32.3789 30.7925 33.0857 30.2605 33.6069C29.7286 34.1281 29.0071 34.4209 28.2549 34.4209H24.0855L23.0502 37.1998H28.2549C29.7595 37.1998 31.2023 36.6143 32.2661 35.5719C33.33 34.5297 33.9277 33.116 33.9277 31.6419H36.0549C36.9952 31.6419 37.897 31.2759 38.562 30.6245C39.2268 29.973 39.6004 29.0894 39.6004 28.1682V23.9998C39.6004 23.0786 39.2268 22.195 38.562 21.5435C37.897 20.8921 36.9952 20.5261 36.0549 20.5261Z" fill="#1E1E1E"/>
</svg>
